/* XPM */
/* values:string -> width, height, n_colors, n_char_per_pixel, hot_x, hot_y */
static char* collectible[]= {
/* values: width height n_colors chars_per_pixel hotspot_x hotspot_y ext */
"26 26 2 1 0 0",
/* colors: char(s) key color */
"- c none",
"x c #6036c1",
/* pixels: height strings of width * chars_per_pixel */
"--------------------------",
"--------------------------",
"--------------------------",
"--------------------------",
"--------------------------",
"--------------------------",
"------------xx------------",
"-----------xxxx-----------",
"----------xxxxxx----------",
"---------xxxxxxxx---------",
"--------xxxxxxxxxx--------",
"-------xxxxxxxxxxxx-------",
"------xxxxxxxxxxxxxx------",
"-------xxxxxxxxxxxx-------",
"--------xxxxxxxxxx--------",
"---------xxxxxxxx---------",
"----------xxxxxx----------",
"-----------xxxx-----------",
"------------xx------------",
"--------------------------",
"--------------------------",
"--------------------------",
"--------------------------",
"--------------------------",
"--------------------------",
"--------------------------"
};