/* XPM */
static char *pause1677750457[] = {
/* columns rows colors chars-per-pixel */
"32 32 2 1 ",
"  c None",
". c #F0A63B",
/* pixels */
"                                ",
"                                ",
"                                ",
"                                ",
"                                ",
"                                ",
"       ........  ........       ",
"       ........  ........       ",
"       ........  ........       ",
"       ........  ........       ",
"       ........  ........       ",
"       ........  ........       ",
"       ........  ........       ",
"       ........  ........       ",
"       ........  ........       ",
"       ........  ........       ",
"       ........  ........       ",
"       ........  ........       ",
"       ........  ........       ",
"       ........  ........       ",
"       ........  ........       ",
"       ........  ........       ",
"       ........  ........       ",
"       ........  ........       ",
"       ........  ........       ",
"       ........  ........       ",
"                                ",
"                                ",
"                                ",
"                                ",
"                                ",
"                                "
};
