/* XPM */
static char *_676559283421[] = {
/* columns rows colors chars-per-pixel */
"64 64 227 2 ",
"   c black",
".  c #000001",
"X  c #020200",
"o  c #020403",
"O  c #060600",
"+  c #070701",
"@  c #040402",
"#  c #010304",
"$  c #0E0E01",
"%  c #090B06",
"&  c #030909",
"*  c #090F0B",
"=  c #0D0D0E",
"-  c #0A100B",
";  c #111001",
":  c #171601",
">  c #19160C",
",  c #07181E",
"<  c #221F06",
"1  c #201D17",
"2  c #292702",
"3  c #2C2A02",
"4  c #2D2B02",
"5  c #322F03",
"6  c #2A2511",
"7  c #090A29",
"8  c #071C22",
"9  c #101C21",
"0  c #1C2420",
"q  c #14282C",
"w  c #0D2F3A",
"e  c #0D303B",
"r  c gray14",
"t  c #2B2620",
"y  c #37332F",
"u  c #242538",
"i  c #303333",
"p  c #343231",
"a  c #343331",
"s  c gray22",
"d  c gray23",
"f  c #423E03",
"g  c #403917",
"h  c #413629",
"j  c #443A2D",
"k  c #4C4903",
"l  c #524E04",
"z  c #545005",
"x  c #5C5703",
"c  c #5B5605",
"v  c #484117",
"b  c #524A1C",
"n  c #5E5615",
"m  c #645F05",
"M  c #746F06",
"N  c #706A08",
"B  c #777107",
"V  c #7E7807",
"C  c #4F4236",
"Z  c #4D523A",
"A  c #675D23",
"S  c #65563F",
"D  c #7C6D2F",
"F  c #111252",
"G  c #113D4A",
"H  c #373740",
"J  c #222359",
"K  c #161F6A",
"L  c #124150",
"P  c #14485A",
"I  c #154A5B",
"U  c #264955",
"Y  c #185365",
"T  c #195A6D",
"R  c #1B5E72",
"E  c #295260",
"W  c #276274",
"Q  c #47484A",
"!  c #4A5650",
"~  c #505050",
"^  c #58575C",
"/  c gray35",
"(  c #5E5C5C",
")  c #645344",
"_  c #715F48",
"`  c #7E6F50",
"'  c #626262",
"]  c #656565",
"[  c #6A6B6B",
"{  c #777561",
"}  c #737473",
"|  c #FF3030",
" . c #8C745B",
".. c #967D60",
"X. c #B97979",
"o. c #D75353",
"O. c #D35757",
"+. c #D55555",
"@. c #E16262",
"#. c #FF6D6D",
"$. c #898207",
"%. c #8E8708",
"&. c #918B08",
"*. c #97900A",
"=. c #9D9609",
"-. c #9E960A",
";. c #878112",
":. c #A39B0A",
">. c #A8A00A",
",. c #ACA40A",
"<. c #B1A909",
"1. c #B8AF0A",
"2. c #BDB40B",
"3. c #C4BB0B",
"4. c #CBC20B",
"5. c #D0C60B",
"6. c #D7CD0C",
"7. c #DCD20D",
"8. c #E3D80D",
"9. c #E9DE0D",
"0. c #EFE40E",
"q. c #F3E80D",
"w. c #FAEE0E",
"e. c #FDF10F",
"r. c #FFF30F",
"t. c #FFF50F",
"y. c #FFF70F",
"u. c #FFF90F",
"i. c #94836E",
"p. c #A38967",
"a. c #B19471",
"s. c #1A3182",
"d. c #292A9C",
"f. c #1F1FA3",
"g. c #20718A",
"h. c #247E99",
"j. c #6C7E83",
"k. c #7E7E80",
"l. c #757696",
"z. c #727398",
"x. c #79799B",
"c. c #3639CF",
"v. c #3437F7",
"b. c #2D55C8",
"n. c #3759F8",
"m. c #3867F9",
"M. c #397AFE",
"N. c #494CF2",
"B. c #7578FA",
"V. c #FF73B7",
"C. c #FE34C1",
"Z. c #2B8DAC",
"A. c #3395B3",
"S. c #5B8292",
"D. c #64A3B6",
"F. c #2E9EC0",
"G. c #30AACF",
"H. c #32B2D8",
"J. c #3593E6",
"K. c #36B6E4",
"L. c #3AA4FB",
"P. c #3AAFFB",
"I. c #3AB7F9",
"U. c #3EC1EA",
"Y. c #39C5F1",
"T. c #3BCAFA",
"R. c #39CFFD",
"E. c #3CCFFC",
"W. c #3CD1FD",
"Q. c #3DD3FF",
"!. c #41CAF4",
"~. c #44D1FC",
"^. c #4AD2FB",
"/. c #59D6FD",
"(. c #71DCFD",
"). c #8C8B8C",
"_. c #939494",
"`. c #AF8B8B",
"'. c #8080A0",
"]. c #81A1AA",
"[. c #ABA9A8",
"{. c #B2B3B4",
"}. c #BEBEBD",
"|. c #C49E9E",
" X c #CFAE86",
".X c #D6B38A",
"XX c #D9B890",
"oX c #C0B2A5",
"OX c #CCBDAC",
"+X c #FFAAAD",
"@X c #E7C193",
"#X c #EDC798",
"$X c #FBC6A2",
"%X c #F7D0A0",
"&X c #FDD4A2",
"*X c #FDDAAC",
"=X c #F8DDBB",
"-X c #A7A7D4",
";X c #8B8AFA",
":X c #8B92FB",
">X c #98C1CC",
",X c #A6D7FD",
"<X c #B5D7FD",
"1X c #82E1FE",
"2X c #8CE0FA",
"3X c #9BE7FF",
"4X c #ADECFE",
"5X c #C5C5CD",
"6X c #D0CFCE",
"7X c #DAD7D2",
"8X c #D3D8D9",
"9X c #E4CEC2",
"0X c #FEEACE",
"qX c #D9D5FD",
"wX c #C5EDFE",
"eX c #D4ECFE",
"rX c #D0F3FE",
"tX c #DDF5FC",
"yX c #DDFAFF",
"uX c #E7E7E5",
"iX c #FFF6EA",
"pX c #EAFAFE",
"aX c #F1F1F0",
"sX c #F2FAFC",
"dX c #FEFCFB",
"fX c white",
"gX c None",
/* pixels */
"gXgXgXgXgXgXgXgXgXgXgXgXgXgXgXgXgXgXgXgXgXgXgXgXgXgXgXgXgXgXgXgXgXgXgXgXgXgXgXgXgXgXgXgXgXgXgXgXgXgXgXgXgXgXgXgXgXgXgXgXgXgXgXgX",
"gXgXgXgXgXgXgXgXgXgXgXgXgXgXgXgXgXgXgXgXgXgXgXgXgXgXgXgXgXgXgXgXgXgXgXgXgXgXgXgXgXgXgXgXgXgXgXgXgXgXgXgXgXgXgXgXgXgXgXgXgXgXgXgX",
"gXgXgXgXgXgXgXgXgXgXgXgXgXgXgXgXgXgXgXgXgXgXgXgXgXgXgXgXgXgXgXX gXgXgXgX  gXgXgXgXgXgXgXgXgXgXgXgXgXgXgXgXgXgXgXgXgXgXgXgXgXgXgX",
"gXgXgXgXgXgXgXgXgXgXgXgXgXgXgXgXgXgXgXgXgXgXgXgXgXgXO gXgXgX[ ] s gXgX  O gXgXgXgXgXgXgXgXgXgXgXgXgXgXgXgXgXgXgXgXgXgXgXgXgXgXgX",
"gXgXgXgXgXgXgXgXgXgXgXgXgXgXgXgXgXgXgXgXgXgXgXgXgXgX= a gX/ }.}.} s gXi = gXgXgXgXgXgXgXgXgXgXgXgXgXgXgXgXgXgXgXgXgXgXgXgXgXgXgX",
"gXgXgXgXgXgXgXgXgXgXgXgXgXgXgXgXgXgXgXgXgXgXgXgXgXgXu z.^ 5X|.X.`.} H z.9 gXgXgXgXgXgXgXgXgXgXgXgXgXgXgXgXgXgXgXgXgXgXgXgXgXgXgX",
"gXgXgXgXgXgXgXgXgXgXgXgXgXgXgXgXgXgXgXgXgXgXgXgXgXgXF N.5X[.@.| O._.l.c.7 gXgXgXgXgXgXgXgXgXgXgXgXgXgXgXgXgXgXgXgXgXgXgXgXgXgXgX",
"gXgXgXgXgXgXgXgXgXgXgXgXgXgXgXgXgXgXgXgXgXgX% - O O F c.H ).9X#.o.} u c.7 O O - $ gXgXgXgXgXgXgXgXgXgXgXgXgXgXgXgXgXgXgXgXgXgXgX",
"gXgXgXgXgXgXgXgXgXgXgXgXgXgXgXgXgXgXgXgXgX% >.4.4.M u '.k._.@.| +._.k.x.1 %.4.4.&.& gXgXgXgXgXgXgXgXgXgXgXgXgXgXgXgXgXgXgXgXgXgX",
"gXgXgXgXgXgXgXgXgXgXgXgXgXgXgXgXgXgXgXgX: :.q.y.u.8.;.i H ).X.X.`.k.i j *.9.y.y.9.&.$ gXgXgXgXgXgXgXgXgXgXgXgXgXgXgXgXgXgXgXgXgX",
"gXgXgXgXgXgXgXgXgXgXgXgXgXgXgXgXgXgXgX4 *.w.t.y.<.<.8.$.V Z Q Q Q Z V %.0.t.t.t.t.9.;.+ gXgXgXgXgXgXgXgXgXgXgXgXgXgXgXgXgXgXgXgX",
"gXgXgXgXgXgXgXgXgXgXgXgXgXgXgXgX  X 4 $.e.r.r.2.M -.t.y.q.V x x x %.r.y.r.r.3.3.t.t.q.M 0 gXX   gXgXgXgXgXgXgXgXgXgXgXgXgXgXgXgX",
"gXgXgXgXgXgXgXgXgXgXgXgXgXgXgXgXX < %.r.r.e.4.m >.t.r.r.r.r.r.r.r.r.r.r.r.r.%.M 6.e.t.w.N f < X gXgXgXgXgXgXgXgXgXgXgXgXgXgXgXgX",
"gXgXgXgXgXgXgXgXgXgXgXgXgXgXgXgX+ B 9.r.e.5.5 ,.r.r.r.r.r.r.r.r.r.r.r.r.r.r.e.$.l q.8.w.w.8.B + gXgXgXgXgXgXgXgXgXgXgXgXgXgXgXgX",
"gXgXgXgXgXgXgXgXgXgXgXgXgXgXgXgXgX+ N q.5.3 ; 1.y.r.r.r.r.r.r.r.r.r.r.r.r.r.y.$.k 5.k 5.q.N + gXgXgXgXgXgXgXgXgXgXgXgXgXgXgXgXgX",
"gXgXgXgXgXgXgXgXgXgXgXgXgXgXgXgXgX  ; 5 3 ; >.q.r.r.r.r.r.r.r.r.r.r.r.r.r.r.y.$.k q.3.k 5 ;   gXgXgXgXgXgXgXgXgXgXgXgXgXgXgXgXgX",
"gXgXgXgXgXgXgXgXgXgXgXgXgXgX+ gXgX  f ,.%.< 5.y.r.r.r.r.r.r.r.r.r.r.r.r.r.r.y.$.k e.w.1.,.f   gXgX+ gXgXgXgXgXgXgXgXgXgXgXgXgXgX",
"gXgXgXgXgXgXgXgXgXgXgXgXgXgXO &   c 2.u.7.2 5.t.r.r.r.r.r.r.r.r.r.r.r.r.r.r.u.$.k w.r.y.y.2.c   & O gXgXgXgXgXgXgXgXgXgXgXgXgXgX",
"gXgXgXgXgXgXgXgXgXgXgXgXgXgXO l m 1.y.t.6.2 5.t.r.r.r.r.r.r.r.r.r.r.r.r.t.y.3.V *.e.r.r.r.y.1.m l @ gXgXgXgXgXgXgXgXgXgXgXgXgXgX",
"gXgXgXgXgXgXgXgXgXgXgXgXgXgX: =.0.t.r.t.6.2 5.t.r.r.r.r.r.r.r.r.r.r.r.w.3.1.N *.y.r.r.r.r.r.t.0.=.*   gXgXgXgXgXgXgXgXgXgXgXgXgX",
"gXgXgXgXgXgXgXgXgXgXgXgXgXgXgXX =.0.t.t.6.2 5.t.r.r.r.r.r.r.r.r.r.r.w.4.v t %.6.8.r.r.r.r.t.0.=.X gXgXgXgXgXgXgXgXgXgXgXgXgXgXgX",
"gXgXgXgXgXgXgXgXgXgXgXgXgXgXgXgX: %.0.0.4.2 5.t.r.r.r.r.r.r.r.r.r.e.4.v a..XS ; x 9.0.0.0.0.%.: gXgXgXgXgXgXgXgXgXgXgXgXgXgXgXgX",
"gXgXgXgXgXgXgXgXgXgXgXgXgXgXgXgXgX4 5 5 2 ; 5.t.r.r.r.r.r.r.r.r.r.2.b a.j t > . ; 5 5 5 5 5 4 gXgXgXgXgXgXgXgXgXgXgXgXgXgXgXgXgX",
"gXgXgXgXgXgXgXgXgXgXgXgXgXgXgXgXgXgX+ t  .< 5.y.r.r.r.r.r.r.r.y.<.A ..C = k.D.P 5 $.>  .t + gXgXgXgXgXgXgXgXgXgXgXgXgXgXgXgXgXgX",
"gXgXgXgXgXgXgXgXgXgXgXgXgXgXgXgXgXgXgXj  X6 4.-.2.t.r.r.r.r.r.,.D a. X= . ! >XS.l 4.6  Xj gXgXgXgXgXgXgXgXgXgXgXgXgXgXgXgXgXgXgX",
"gXgXgXgXgXgXgXgXgXgXgXgXgXgXgXgXgXgXgXj  X6 4.k $.y.r.r.r.r.y.m ) *X X= F K -X).k 4.6  Xj gXgXgXgXgXgXgXgXgXgXgXgXgXgXgXgXgXgXgX",
"gXgXgXgXgXgXgXgXgXgXgXgXgXgXgXgXgXgXgXg ..< 4.k $.u.r.r.r.r.4.N ..&XXXC d.f.-X).k 4.< ..g gXgXgXgXgXgXgXgXgXgXgXgXgXgXgXgXgXgXgX",
"gXgXgXgXgXgXgXgXgXgXgXgXgXgXgXgXgX  X gX@ ; 4.N $.9.r.r.e.6.n p.&X&X&X@XC t [.).k 4.; @ gXgX  X gXgXgXgXgXgXgXgXgXgXgXgXgXgXgXgX",
"gXgXgXgXgXgXgXgXgXgXgXgXgXgXgXgXgX  @ O X ; 2.0.N M r.r.0.f p.$X$X$X&X&X@X@X#X` k 4.; @ gX+ ; X gXgXgXgXgXgXgXgXgXgXgXgXgXgXgXgX",
"gXgXgXgXgXgXgXgXgXgXgXgXgXgXgXgXgX  l -.; X 2 3.N m e.r.9.5 a.V.C.V.&X&X%X%X` = l 4.; X O &.M X gXgXgXgXgXgXgXgXgXgXgXgXgXgXgXgX",
"gXgXgXgXgXgXgXgXgXgXgXgXgXgXgXgXgX  m 0.1.>.< <.M ; V 7.l ; a.+X+X+X&X#XS j > . l 4.< *.1.9.$.X gXgXgXgXgXgXgXgXgXgXgXgXgXgXgXgX",
"gXgXgXgXgXgXgXgXgXgXgXgXgXgXgXgXgX  m y.y.e.,.M D C f 5.> _ _ S S S ` @X..1 C ..` N -.q.y.u.$.X gXgXgXgXgXgXgXgXgXgXgXgXgXgXgXgX",
"gXgXgXgXgXgXgXgXgXgXgXgXgXgXgXgXgXgXg ,.r.e.,.` oXOX` ;.{ 9Xi.S _ S ` =X0Xj i.0XOX{ -.q.y.2.c gXgXgXgXgXgXgXgXgXgXgXgXgXgXgXgXgX",
"gXgXgXgXgXgXgXgXgXgXgXgXgXgXgXgXgXgXgXg <.>.< {.fXfX6X} aXfX0XXXa. X0XdXdXk.{.fXfX6X1 *.1.z gXgXgXgXgXgXgXgXgXgXgXgXgXgXgXgXgXgX",
"gXgXgXgXgXgXgXgXgXgXgXgXgXgXgXgXgXgXgXgXo @ X _.aXfXaX8XtXtX8X{ 3 S 8XtXtX8XuXfXaX[.= X O gXgXgXgXgXgXgXgXgXgXgXgXgXgXgXgXgXgXgX",
"gXgXgXgXgXgXgXgXgXgXgXgXgXgXgXgXgXgXgXgXgXO = 9 _.aX{.U U.^.U %.q.,.i U.^.E _.aX[.q = @ gXgXgXgXgXgXgXgXgXgXgXgXgXgXgXgXgXgXgXgX",
"gXgXgXgXgXgXgXgXgXgXgXgXgXgXgXgXgXgXgXgXgX- Z.H.W t U G.T.T.G %.t.<.q U.E.H.W t E G.F.9 gXgXgXgXgXgXgXgXgXgXgXgXgXgXgXgXgXgXgXgX",
"gXgXgXgXgXgXgXgXgXgXgXgXgXgXgXgXgXgXgX% 8 Z.Y.Q.T X gXY Y.W.G.! f Z F.T.T.W 0 + G E.T.F.w % gXgXgXgXgXgXgXgXgXgXgXgXgXgXgXgXgXgX",
"gXgXgXgXgXgXgXgXgXgXgXgXgXgXgXgXgXgX~ _.].!.R.Q.T + gXgXY Y Y s.f.s.Y Y Y 0 gXgXG E.R.E.]._.' gXgXgXgXgXgXgXgXgXgXgXgXgXgXgXgXgX",
"gXgXgXgXgXgXgXgXgXgXgXgXgXgXgXgXgX  ] fXsX3X2XA.L gXgXgXO P K b.M.b.K P @ gXgXgXe Z.2X3XpXfX).  gXgXgXgXgXgXgXgXgXgXgXgXgXgXgXgX",
"gXgXgXgXgXgXgXgXgXgXgXgXgXgXgXgXgXgX~ }.iXfXdXQ gXgXgXgXP J.M.L.W.P.M.J.Y gXgXgXgXi aXfXiX6X[ gXgXgXgXgXgXgXgXgXgXgXgXgXgXgXgXgX",
"gXgXgXgXgXgXgXgXgXgXgXgXgXgXgXgXgXgXgXj %XiXdXQ gXgXgXP K.n.L.E.E.E.P.n.P.Y gXgXgXi aXiX=XS   gXgXgXgXgXgXgXgXgXgXgXgXgXgXgXgXgX",
"gXgXgXgXgXgXgXgXgXgXgXgXgXgXgXgXgXgXgXj %X*XuX! gXgXG U.I.n.L.W.E.W.I.n.P.Y.Y   gXa 7X*X&XS   gXgXgXgXgXgXgXgXgXgXgXgXgXgXgXgXgX",
"gXgXgXgXgXgXgXgXgXgXgXgXgXgXgXgXgXgXgXh #X@XZ gXgXgXG I.m.L.T.E.E.E.T.P.m.P.T + gXgXa .X%XS   gXgXgXgXgXgXgXgXgXgXgXgXgXgXgXgXgX",
"gXgXgXgXgXgXgXgXgXgXgXgXgXgXgXgXgXgXgXgXh h gXgXgXI G.T.P.T.E.E.E.E.E.E.P.T.H.R   gXgXy j 0 gXgXgXgXgXgXgXgXgXgXgXgXgXgXgXgXgXgX",
"gXgXgXgXgXgXgXgXgXgXgXgXgXgXgXgXgXgXgXgXgXgXgXgX  Y Q.E.W.E.E.E.E.E.E.E.W.E.Q.g.  gXgXgXgXgXgXgXgXgXgXgXgXgXgXgXgXgXgXgXgXgXgXgX",
"gXgXgXgXgXgXgXgXgXgXgXgXgXgXgXgXgXgXgXgXgXgXgXgXL Z.W.E.E.E.E.E.E.E.E.E.E.E.W.F.I gXgXgXgXgXgXgXgXgXgXgXgXgXgXgXgXgXgXgXgXgXgXgX",
"gXgXgXgXgXgXgXgXgXgXgXgXgXgXgXgXgXgXgXgXgXgXgX  g.Q.E.E.E.E.E.E.E.E.E.E.E.E.E.Q.Z.o gXgXgXgXgXgXgXgXgXgXgXgXgXgXgXgXgXgXgXgXgXgX",
"gXgXgXgXgXgXgXgXgXgXgXgXgXgXgXgXgXgXgXgXgXgXgX  g.Q.E.E.E.E.E.E.E.E.E.E.E.E.E.Q.Z.# gXgXgXgXgXgXgXgXgXgXgXgXgXgXgXgXgXgXgXgXgXgX",
"gXgXgXgXgXgXgXgXgXgXgXgXgXgXgXgXgXgXgXgXgXgXgX% h.Q.E.E.E.E.E.E.E.E.E.E.E.E.E.Q.A., gXgXgXgXgXgXgXgXgXgXgXgXgXgXgXgXgXgXgXgXgXgX",
"gXgXgXgXgXgXgXgXgXgXgXgXgXgXgXgXgXgXgXgXgXgX  h.Y.E.E.E.E.E.E.E.E.E.E.E.E.E.E.E.Y.A.* gXgXgXgXgXgXgXgXgXgXgXgXgXgXgXgXgXgXgXgXgX",
"gXgXgXgXgXgXgXgXgXgXgXgXgXgXgXgXgXgXgXgXgXgXo Z.Q.E.E.E.E.E.E.E.E.E.E.E.E.E.E.E.Q.G.- gXgXgXgXgXgXgXgXgXgXgXgXgXgXgXgXgXgXgXgXgX",
"gXgXgXgXgXgXgXgXgXgXgXgXgXgXgXgXgXgXgXgXgX+ g.K.W.E.E.E.E.E.E.R.R.R.E.E.E.E.E.E.W.U.h.& gXgXgXgXgXgXgXgXgXgXgXgXgXgXgXgXgXgXgXgX",
"gXgXgXgXgXgXgXgXgXgXgXgXgXgXgXgXgXgXgXgX0 j.U.W.E.E.E.E.E.E.E.(.3X1XE.E.E.E.E.E.E.R.!.j.p gXgXgXgXgXgXgXgXgXgXgXgXgXgXgXgXgXgXgX",
"gXgXgXgXgXgXgXgXgXgXgXgXgXgXgXgXgXgXgXgXt uX3X^.R.E.E.E.E.E.R.4XfXrXE.E.E.E.E.E.R.~.1XpXQ gXgXgXgXgXgXgXgXgXgXgXgXgXgXgXgXgXgXgX",
"gXgXgXgXgXgXgXgXgXgXgXgXgXgXgXgXgXgXgXgXr }.sX3X^.R.E.E.E.E./.,XqX<X/.E.E.E.E.E.~.1XsX6Xs gXgXgXgXgXgXgXgXgXgXgXgXgXgXgXgXgXgXgX",
"gXgXgXgXgXgXgXgXgXgXgXgXgXgXgXgXgXgXgXgXgXr }.sX3X~.E.E.E.E.wX:Xv.B.rX^.E.E.E.~.1XsX6Xy gXgXgXgXgXgXgXgXgXgXgXgXgXgXgXgXgXgXgXgX",
"gXgXgXgXgXgXgXgXgXgXgXgXgXgXgXgXgXgXgXgXgXgXr {.sX3X~.~.~.^.wX;Xv.B.eX/.~.~.~.2XpX6Xy gXgXgXgXgXgXgXgXgXgXgXgXgXgXgXgXgXgXgXgXgX",
"gXgXgXgXgXgXgXgXgXgXgXgXgXgXgXgXgXgXgXgXgXgXgXd [.sXrXrXrXrX:XN.v.N.B.wXrXrXrXyXgXs gXgXgXgXgXgXgXgXgXgXgXgXgXgXgXgXgXgXgXgXgXgX",
"gXgXgXgXgXgXgXgXgXgXgXgXgXgXgXgXgXgXgXgXgXgXgXgXd ( ( ( ( ( J F F F J ^ ( ( ( s   gXgXgXgXgXgXgXgXgXgXgXgXgXgXgXgXgXgXgXgXgXgXgX",
"gXgXgXgXgXgXgXgXgXgXgXgXgXgXgXgXgXgXgXgXgXgXgXgXgX                              gXgXgXgXgXgXgXgXgXgXgXgXgXgXgXgXgXgXgXgXgXgXgXgX",
"gXgXgXgXgXgXgXgXgXgXgXgXgXgXgXgXgXgXgXgXgXgXgXgXgXgXgXgXgXgXgXgXgXgXgXgXgXgXgXgXgXgXgXgXgXgXgXgXgXgXgXgXgXgXgXgXgXgXgXgXgXgXgXgX",
"gXgXgXgXgXgXgXgXgXgXgXgXgXgXgXgXgXgXgXgXgXgXgXgXgXgXgXgXgXgXgXgXgXgXgXgXgXgXgXgXgXgXgXgXgXgXgXgXgXgXgXgXgXgXgXgXgXgXgXgXgXgXgXgX",
"gXgXgXgXgXgXgXgXgXgXgXgXgXgXgXgXgXgXgXgXgXgXgXgXgXgXgXgXgXgXgXgXgXgXgXgXgXgXgXgXgXgXgXgXgXgXgXgXgXgXgXgXgXgXgXgXgXgXgXgXgXgXgXgX"
};
