/* XPM */
/* values:string -> width, height, n_colors, n_char_per_pixel, hot_x, hot_y */
static char* player[]= {
/* values: width height n_colors chars_per_pixel hotspot_x hotspot_y ext */
"26 26 6 1 0 0",
/* colors: char(s) key color */
"  c None",
". c #B0B1B4",
"X c #B0B1B5",
"o c #B1B1B5",
"O c #B0B2B5",
"+ c #B1B2B5",
/* pixels: height strings of width * chars_per_pixel */
"                          ",
"                          ",
"                          ",
"                          ",
"                          ",
"                          ",
"                          ",
"            OO            ",
"          +++++O          ",
"         O+++++++         ",
"        OO+++++++O        ",
"       +OO+++++++++       ",
"       ++++++++++++       ",
"       ++++++++++++       ",
"       ++++++++++++       ",
"        +++++++++O        ",
"         ++++++++         ",
"          O++++O          ",
"           ++++           ",
"                          ",
"                          ",
"                          ",
"                          ",
"                          ",
"                          ",
"                          "
};