/* XPM */
static char *resized_peach1676560847[] = {
/* columns rows colors chars-per-pixel */
"64 64 9 1 ",
"  c None",
". c #EC407A",
"X c #F3CD0E",
"o c #E4A449",
"O c #0D80D9",
"+ c #1290F0",
"@ c #FF80AB",
"# c #FFEBB4",
"$ c white",
/* pixels */
"                                                                ",
"                                                                ",
"                                                                ",
"                                                                ",
"                                                                ",
"                                                                ",
"                                                                ",
"                                                                ",
"                                                                ",
"                                                                ",
"                                                                ",
"                                                                ",
"                            oo  oo  oo                          ",
"                            oo  oo  oo                          ",
"                            ++oo..oo++                          ",
"                            ++oo..oo++                          ",
"                          XXXXXXXXXXXX                          ",
"                          XXXXXXXXXXXX                          ",
"                        XXXXXXXXXXXXXXXX                        ",
"                        XXXXXXXXXXXXXXXX                        ",
"                        XXXXXXXXXXXX##XXXX                      ",
"                        XXXXXXXXXXXX##XXXX                      ",
"                    XXXXXXXXXXXX##OO##XXXX                      ",
"                    XXXXXXXXXXXX##OO##XXXX                      ",
"                      XXXXXX##XX##++####                        ",
"                      XXXXXX##XX##++####                        ",
"                        XXXXOOXX########                        ",
"                        XXXXOOXX########                        ",
"                      XXXXXXXX########                          ",
"                      XXXXXXXX########                          ",
"                    XXXXXXXX......XX++@@                        ",
"                    XXXXXXXX......XX++@@                        ",
"                      XXXX@@@@@@@@@@@@@@@@                      ",
"                      XXXX@@@@@@@@@@@@@@@@                      ",
"                        XX####@@@@@@@@@@##                      ",
"                        XX####@@@@@@@@@@##                      ",
"                        $$$$............$$$$                    ",
"                        $$$$............$$$$                    ",
"                      $$$$........@@@@....$$$$                  ",
"                      $$$$........@@@@....$$$$                  ",
"                          ....@@@@@@@@@@..                      ",
"                          ....@@@@@@@@@@..                      ",
"                          @@@@@@@@@@@@@@@@                      ",
"                          @@@@@@@@@@@@@@@@                      ",
"                        @@@@@@@@@@@@@@@@@@@@                    ",
"                        @@@@@@@@@@@@@@@@@@@@                    ",
"                      ......................                    ",
"                      ......................                    ",
"                                                                ",
"                                                                ",
"                                                                ",
"                                                                ",
"                                                                ",
"                                                                ",
"                                                                ",
"                                                                ",
"                                                                ",
"                                                                ",
"                                                                ",
"                                                                ",
"                                                                ",
"                                                                ",
"                                                                ",
"                                                                "
};
