/* XPM */
static char *suelo[] = {
/* columns rows colors chars-per-pixel */
"50 50 60 1 ",
"  c #44794F",
". c #407650",
"X c #417952",
"o c #477D51",
"O c #437C54",
"+ c #437D55",
"@ c #478457",
"# c #458258",
"$ c #468459",
"% c #48875B",
"& c #48885B",
"* c #48895C",
"= c #498B5E",
"- c #4A8C5E",
"; c #538951",
": c #528B55",
"> c #57985F",
", c #58995F",
"< c #5B9B5E",
"1 c #5C9C5D",
"2 c #5F9E5D",
"3 c #629752",
"4 c #679D53",
"5 c #659D55",
"6 c #609E5B",
"7 c #629F5B",
"8 c #6CA253",
"9 c #6EA453",
"0 c #6EA454",
"q c #63A15B",
"w c #64A25B",
"e c #67A45A",
"r c #63A15C",
"t c #68A459",
"y c #69A559",
"u c #6CA758",
"i c #6CA759",
"p c #6EA958",
"a c #72A854",
"s c #70AA57",
"d c #74AA54",
"f c #74AB57",
"g c #77AD54",
"h c #74AC56",
"j c #75AD56",
"k c #78AF55",
"l c #79AF55",
"z c #70A958",
"x c #7AB055",
"c c #4A8E60",
"v c #4B8E60",
"b c #4B9060",
"n c #4C9060",
"m c #4C9161",
"M c #4D9262",
"N c #4E9362",
"B c #509361",
"V c #519461",
"C c #559760",
"Z c #579860",
/* pixels */
"MMMMMMMMMMMMMMMMMMMMMMMMMMMMMMMMMMMvvMMMMMMMMMMMMM",
"MMMMMMMMMMMMMMMMMMMMMMMMMMMMMMMMMMMvvMMMMMMMMMMMMM",
"MMMMMMMMMMMMMMMMMMMMMMMMMMMMMMMMMMb=%vMMMMMMMMMMMM",
"MMMMMMMMMMMMMMMMMMMMMMMMMMMMMMMMMM-@.-MMMMMMMMMMMM",
"MMMMMMMMMMMMMMMMMMMMMMMMMMMMMMMMMMO@%+#MMMMMMMMMMM",
"MMMMMMMMMMMMMMMMMMMMMMMMMMMMMMMMM=X@-OOMMMMMMMMMMM",
"MMMMMMMMMMMMMMMMMMMMMMMMMMMMMMMMMMM%X-MMMMMMMMMMMM",
"MMMMMMMMMMMMMMMMMMMMMMMMMMMMMMMMMMM=$MMMMMMMMMMMMM",
"MMMMMMMMMMMMMMMMMMMMMMMMMMMMMMMMMMMMMMMMMMMMMMMMMM",
"MMMMMMMMMMMMMMMMMMMMMMMMMMMVVMMMMMMMMMMMMMMMMMMMMM",
"MMMMMMMMMMMMMMMMMMMMMMMMMMM,wMMMMMMMMMMMMMMMMMMMMM",
"MMMMMMMMMMMMMMMMMMMMMMMMMMMyxVVMMMMMMMMMMMMMMMMMMM",
"MMMMMMMMMMVMMMMMMMMMMMMMMMMyxswMMMBBMMMMMMMMMMMMMM",
"MMMMMMMMMV>MMMMMMMMMMMMMMMMylxyM-B>BMMMMMMMMMMMMMM",
"MMMMMMMMM2x,MMMMMMMMMMMMMMMyjxyvB>lwMMMMMMMMMMMMMM",
"MMMMMMMMM2l,MVMMMMMMMMMMMMM,7j5@2yg7MMMMMMMMMMMMMM",
"MMMMMMMMM2x,MVVMMMMMMMMMMMMMMs3 9ld7MMMMMMMMMMMMMM",
"MMMMMMMMM2l>Vj7MMMMMMMMMMMMMMo;9s9o%MMMMMMMMMMMMMM",
"MMMMMMMMM7l>ZlrMMMMMMMMMMMMMMO:443O%MMMMMMMMMMMMMM",
"MMMMMMMMM,s,VxwMMMMMMMMMMMMMMM%..XMMMMMMMMMMMMMMMM",
"MMMMMMMMM,2VZj7MMMMMMMMMMMMMMM-%&-MMMMMMMMMMMMMMMM",
"MMMMMMMMMMMMVjwMMMMMMMMMMMMMMMMMMMMMMMMMMMMMMMMMMM",
"MMMMMMMMbMMMMMMMMMMMMMMMMMMMMMMMMMMMMMMMMMMMMMMMMM",
"NNMMMMMMMMMMMMMMMMMMMMMMMMMMMMMMMMMMMMMMMMMMMMMMMM",
"VMMMMMMMMMMMMMMMMMMMMMMMMMMMMMMMMMMMMMMMMMMMMMMMMM",
"pqMMMMMMMMMMMMMMMMMMMMMMMMMMMMMMMMMMMMMMMMMMMMMMMM",
"yr2BNMMMMMMMMMMMMMMMMMMMMMMMMMMMMMMMMMMMMMMMMMMMMM",
"V2j,MMMMMMMMMMMMMMMMMMMMMMMMMMMMMMMMMMMMMMMMMMMMMM",
"yr2MMMMMMMMMMMMMMMMMMMMMMMMMMMMMMMMMMMMMMMMMMMMMMM",
"hyMMMMMMMMMMMMMMMMMMMMMMMMMMMMMMMMMMMMMMMMMMMMMMMM",
"MMMMMMMMMMMMMMMMMMMMMMMMMMMMMMMMMMMMMMMMMMMMMMMMMM",
"MMMMMMMMMMMMMMMMMMMMMMMMMMMMMMMMMMMMMMMMMMMMMMMMMM",
"MMMMMMMMMMMMMMMMMMMMMMMMMMMMMMMMMMMMMMMMMMMMMMMMMM",
"MMMMMMMMMMMMMMMMvvMNMMMMMMMMMMMMMMMMMMMMMMMMMMMMMM",
"MMMMMMMMMMMMMMMbv-bbMMMMMMMMMMMMMMMMMMMMMMMMMMMMMM",
"MMMMMMMMMMMMMMbbX+vMMMMMMMMMMMMMMMMMMMMMMMMMMMMMMM",
"MMMMMMMMMMMMMM*$###=MMMMMMMMMMMMMMMMMMMMMMMMMMMMMM",
"MMMMMMMMMMMMMM$.&*.*MMMMMMMMMMMMMMMMMMMMMMMMMMMMMM",
"MMMMMMMMMMMMMMM-+@vvMMMMMMMMMMMMMMMMMMMMVVMMMMMMMM",
"MMMMMMMMMMMMMMMM+@MMMMMMMMMMMMMMMMMMMMMMZZMMMMMMMM",
"MMMMMMMMMMMMMMMMMMMMMMMMMMMMMMMMMMMMMVVMyjMMMMMMMM",
"MMMMMMMMMMMMMMMMMMMMMMMMMMMMMMMMMMMMMyrMyjMMMMMMMM",
"MMMMMMMMMMMMMMMMMMMMMMMMMMMMMMMMMMMMMppMyfMMMMMMMM",
"MMMMMMMMMMMMMMMMMMMMMMMMMMMMMMMMMMMMMjpMrpMMMMMMMM",
"MMMMMMMMMMMMMMMMMMMMMMMMMMMMMMMMMMMMMspM<2MMMMMMMM",
"MMMMMMMMMMMMMMMMMMMMMMMMMMMMMMMMMMMMMzpMMMMMMMMMMM",
"MMMMMMMMMMMMMMMMMMMMMVVMMMMMMMMMMMMMMVVNMMMMMMMMMM",
"MMMMMMMMMMMMMMMMMMMMM2,MMMMMMMMMMMMMMMMMMMMMMMMMMM",
"MMMMMMMMMMMMMMMMMMMVVhyVMMMMMMMMMMMMMMMMMMMMMMMMMM",
"MMMMMMMMMMMMMMMMMMM2w2reVMMMMMMMMMMMMMMMMMMMMMMMMM",
"MMMMMMMMMMMMMMMMMMMqjZ2j>MMMMMMMMMMMMMMMMMMMMMMMMM"
};
