/* XPM */
static char *f027dd5664eb429c84a5cd4ccd4a81c8yFT4iHAEpnHbHrJS[] = {
/* columns rows colors chars-per-pixel */
"56 56 14 1 ",
"  c #9CAEB8",
". c #9FB1BD",
"X c #A2B3BD",
"o c #A3B4BD",
"O c #C7D7F7",
"+ c #CADAFB",
"@ c #CEDDFB",
"# c #CBDBFC",
"$ c #CEDDFC",
"% c #CFDEFC",
"& c #F7F8F9",
"* c #F9FAFA",
"= c #FBFCFF",
"- c white",
/* pixels */
"-----------------$-#----------XX-----------------@-#----",
"-----------------#-$---------XOOX----------------#-+----",
"-----------------#-=---------+.+O----------------@-=----",
"$----------------#----------@#&-+----------------#------",
"=----------------=----------+#--=----------------=------",
"$$$-------------------------@=--------------------------",
"-==-------------------------=---------------------------",
"--------------------------------------------------------",
"---------------------------------o----------------------",
"--------------------------------o&o---------------------",
"--------------------------------*o&---------------------",
"---------------------------------&----------------------",
"--------------------------------------------------------",
"---------------------------------o----------------------",
"--------------------------------o&X---------------------",
"--------------------------------*o&---------------------",
"---------------------------------&----------------------",
"--------------------------------------------------------",
"----------------------------$----------------------$$$$-",
"----------------------------#$=--------------------====-",
"--------o--------$----------##--$--------------------@$$",
"-------X&o-------#-----------#X@+--------------------==-",
"o@@----*X&-------#-$---------.O#.-----------------------",
"O+=-----*--------$-#---------&..&-----------------------",
"+.-----------------#----------**------------------------",
".O$$---------------=------------------------------------",
"*-##@---------------------------------------------------",
"--===------$--------------------------------------------",
"-----------=$-----------------------------$-------------",
"-----------$=------------------------------------$$$----",
"-----------=-------------------------------------=@#@X--",
"--------------------------------------------------==.OX-",
"----------------------------------------------------++ -",
"---------------------o-----------------------o-----@+.&-",
"--------------------o&o---------------------o&X----=-&--",
"$-------------------*o&---------------------&X&---------",
"=--------------------*--------------$--------*----------",
"$$$-------------------------------$-#-------------------",
"==--------------------------------+-#-------------------",
"----------------------------------@-=-------------------",
"----------------------------------=---------------------",
"------------------------$-------------------------------",
"-----------------------@=$------------------------------",
"-----------------------=$=------------------------------",
"--------------------------------------------------------",
"--------------------X-----------------------------------",
"-------------------o&X----------------------------------",
"-------------------&o&----------------------------------",
"--------------------*-----------------------------------",
"--------------------------------------------------------",
"-------------------------$-------------------------$$$$-",
"------------------------$#-------------------------=-==-",
"----$----------------$--+#----------@----------------$$$",
"----#----------------+$X+=----------$----------------=-=",
"o-$-#=---------------.++.---------$-#----------------o--",
"&-#-#----------------*X &---------#-#----------------&X-"
};
